<svg id="Layer_1" data-name="Layer 1" xmlns="http://www.w3.org/2000/svg" width="1297.41" height="483.36" viewBox="0 0 1297.41 483.36"><title>logo-cycle-store</title><path d="M-363.67-3-365.28.66c15.47,8,25.2,20.42,27.95,37.78a48.13,48.13,0,0,1-7.33,34.34,49.83,49.83,0,0,1-61,19,49.78,49.78,0,0,1-29.41-57,48.46,48.46,0,0,1,22.22-31.2c11.62-7.29,24.27-9.09,37.73-6.31l10.18-23.76c-3.75-.66-7.35-1.23-10.93-.15-2.93.89-3.47,3.14-1.5,5.53,2.1,2.55,2,5.58-.29,7.56s-5.3,1.59-7.45-.67a13.31,13.31,0,0,1,4.51-21.68c5-2.13,10.11-1.89,15.27-1.18,2.79.39,5.57,1,8.31,1.65,3.94,1,5.43,4,3.88,7.72-1.06,2.56-2.17,5.1-3.37,7.9.67,0,1.17.11,1.68.11q38,0,75.94,0c1.27,0,2-.28,2.4-1.56s1-2.38,1.57-3.86c-3.19,0-6.05,0-8.92,0a5,5,0,0,1-4.79-3.52,4.8,4.8,0,0,1,1.6-5.56,6.85,6.85,0,0,1,3.59-1.23c8.6-.11,17.21-.08,25.81,0a5.21,5.21,0,0,1,5.47,5.26c-.07,3-2.31,5.08-5.59,5.11-1,0-2.07,0-3.1,0-3.44.07-2.49-.52-3.86,2.52-1,2.13-1.88,4.29-2.69,6.48a2.42,2.42,0,0,0,.17,1.9c3.11,4.78,6.33,9.51,9.46,14.28.55.84,1,1,1.94.58a49.77,49.77,0,0,1,70,36.36c5.14,27.51-14.47,54.51-42.16,58.06-26.78,3.43-50.43-13.59-55.8-40.15-.08-.37-.17-.74-.31-1.34h-1.7c-4.47,0-8.93,0-13.39,0A6.6,6.6,0,0,1-304,51.8Q-333.15,25-362.32-1.82ZM-379.4,7.28c-15.33-3.55-36.39,4.32-44.05,24.87a39.35,39.35,0,0,0,23.52,50.74,39.41,39.41,0,0,0,50.44-23.63c7.53-20.95-3.75-41.52-20-48.78-.36.84-.74,1.67-1.1,2.51-4.55,10.6-9.06,21.21-13.68,31.77a7.23,7.23,0,0,1-2.57,3,4.8,4.8,0,0,1-5.87-.75,5.06,5.06,0,0,1-1.14-6c2.84-6.72,5.72-13.41,8.59-20.11Zm128.33,2.8c.21.35.33.58.48.8q11.28,16.9,22.58,33.8c1.34,2,2,4,.8,6.24s-3.13,2.75-5.49,2.74c-12.91,0-25.81,0-38.71,0h-1.9c1.88,11.85,12.16,27.09,30.91,30.88A39.48,39.48,0,0,0-200,64.14a39.23,39.23,0,0,0-7.94-47C-221.12,4.64-239.37,4.26-251.07,10.08Zm-50.84,29.54L-281.57-9.2H-355Zm60.33,3.51L-260,15.5a39.61,39.61,0,0,0-14.15,27.63ZM-272.69-3.53l-19.45,46.69h7.53A50.17,50.17,0,0,1-265.82,6.78Z" transform="translate(502.54 37.56)"/><text transform="translate(978.27 270.08)" font-size="140.04" fill="#29abe2" font-family="Montserrat-Italic, Montserrat" font-style="italic" letter-spacing="-0.07em">S<tspan x="75.62" y="0" letter-spacing="-0.09em">t</tspan><tspan x="119.31" y="0" letter-spacing="-0.08em">o</tspan><tspan x="196.61" y="0" letter-spacing="-0.09em">r</tspan><tspan x="240.45" y="0">e</tspan></text><path d="M-408.37,338.27c3.92-4.61,7.94-9.2,11.75-14a4.73,4.73,0,0,0,.44-3.56c-2-8.35-3.41-17-6.54-24.88-2.1-5.34-6.63-9.76-10.27-14.44-.51-.65-2.18-.48-3.31-.53-8.48-.33-16.12-2.88-22.47-8.64-1.35-1.22-2.33-2.85-4.15-5.13h12.63c-.84-3.54-1.9-6.58-2.23-9.71-2-18.39,10.61-36.18,29.72-42.1,22.53-7,45.41-7.35,68.37-2.81,9.57,1.89,15.29,8.4,17.61,17.84,3.14,12.76,6.31,25.51,9.34,38.29a5.68,5.68,0,0,0,4,4.66c8.65,3.21,17.13,6.93,25.84,10a50.2,50.2,0,0,0,12.57,2.26c3.64.29,7-.93,8.67-4.7.87-1.93,2.17-2.06,3.71-.76,1.28,1.09,2.54,2.2,2.63,3.36-.35,2.23-.79,4.44-1,6.68a95.66,95.66,0,0,0-.81,9.69c0,3.24.37,6.48.57,9.39-4-1.52-6.35-6.38-5-11.36.48-1.79.43-3.72.73-6.76l-6.6,3.41c.77,12-2.44,18-11.24,21.11-.61.22-1.29.67-1.84.54a33.93,33.93,0,0,1-3.94-1.35c.87-1.06,1.56-2.4,2.65-3.11,1.94-1.25,4.34-1.83,6.15-3.22,3.49-2.66,4.31-5.91,3.41-11.54-6.61,2.3-13.3,3.58-20.61.59,3.24,11.45,7.23,24.8,10.07,34.83,7.72-1.93,15.56-3.79,23.28-2.84,23.72,2.89,40.28,16,48.22,38.42s3.28,43-13.23,59.92-37.35,22.09-59.94,14.62c-23.09-7.64-36.81-24.5-39.54-48.63-2.69-23.75,6.74-42.72,26.88-56,2.3-1.51,3.11-2.66,1.73-5.19-1.53-2.82-2.77-5.79-4.37-9.19a53.07,53.07,0,0,0-4.09,3.69c-13,14.73-26,29.55-39.08,44.22-2.05,2.31-2.63,4.21-1.49,7.22,2.88,7.65,5.33,15.45,8.17,23.81-6.63,1.33-11-2.07-15.53-6.06-.31,1.26-.54,2.17-.78,3.08A15.2,15.2,0,0,1-361.06,411c-6.95.46-13.3-3.13-15.34-9.63-1.26-4-3.7-4-6.74-3.82-9.39,43.23-52.6,55.72-82.71,43.72a58.38,58.38,0,0,1-32-77C-483.72,330.86-441.72,317.9-408.37,338.27ZM-283,350.21c-20.22,11.65-27,38.27-15.41,58.27a43,43,0,0,0,58.68,15.85c20.65-11.91,27.86-38.25,16-58.62C-234,347.92-256.41,340-273.9,346.5c3.1,10.95,6.29,21.93,9.29,32.95.65,2.38,3,5.7-.89,7.08s-4.07-2.69-5-4.95C-274.72,371.27-278.77,360.88-283,350.21Zm-115.92,44.63-27.52-4.17c-.52-.08-1.14-.35-1.53-.16a6.86,6.86,0,0,0-2.82,1.88c-3.28,5-8.18,7.16-13.32,5.61a11.48,11.48,0,0,1-8-11.61c.27-5.3,4-9.36,9.78-10.63,1.09-.24,2.45-.47,3.1-1.21,6.88-8,13.64-16,20.45-24.08-13.8-9.76-38.14-8.46-51.8,3.07-15.49,13.07-20.16,37.88-11.58,56,8.34,17.59,30.76,24.8,50.17,21.23C-414.88,427.59-400,410.68-398.92,394.84Zm72.65-98,26.12-4c-6.08-2.46-11.18-4.57-16.31-6.59a17.85,17.85,0,0,1-10.74-11.12q-5.19-14.51-10.63-28.92a12.59,12.59,0,0,0-2.14-2.88l-1,.78c1,4.35,2,8.71,3.05,13.57H-390c.55,1.19.84,1.89,1.19,2.57q10,19.43,20.09,38.83c3.22,6.21,3.19,5.91,10,4.75,4-.68,5.5-3,6.55-6.7a85.38,85.38,0,0,1-9.67-.63,6.39,6.39,0,0,1-4.08-2.55c-3.44-6.12-6.55-12.43-9.78-18.67-2.31-4.45-4.63-8.89-7.34-14.11,1.56.52,2.26.71,2.93,1,14.22,5.76,28.39,11.65,42.67,17.27C-329.6,282.54-325,287.47-326.27,296.88Zm-19.83,60c1.11-1.18,2-2.09,2.87-3q18.68-20.76,37.32-41.56c1.91-2.14,5.49-4.57,3.25-7.44-1.63-2.1-5.48-2.8-8.49-3.4-2.34-.46-4.93,0-7.36.4q-13.67,2.22-27.28,4.68c-5.72,1-11.41,2.28-17.18,3.45,2.07,5.15,2.06,5.15,6.8,4.19,1.52-.31,3.05-.62,4.59-.91l19.61-3.63c-.76,1.94-1.2,3.15-1.69,4.32-4.31,10.32-8.42,20.72-13,30.9C-348.6,349-348.68,352.65-346.1,356.84Zm-51.62,31.49c-.26-15.08-5.86-26.64-17.34-35.65-7.12,8-14.09,15.77-20.45,22.87,3.6,8.49,10.71,9.07,17.82,9.91C-411.16,386.22-404.66,387.32-397.72,388.33Zm-7.13-47.19c15.42,12.89,22.68,29.1,22.5,49.19,3.43-3.12,4.31-6.08,3.28-9.73-2.56-9.12-4.95-18.29-7.53-27.41-2.25-7.92-4.66-15.8-7.2-24.38Zm42.39,64.24a10,10,0,0,0,10.24-10.07,10.22,10.22,0,0,0-10-10,10.06,10.06,0,0,0-10.16,10.16A9.89,9.89,0,0,0-362.46,405.38Zm-21.7-81.45-.57.21c5.43,18.9,10.87,37.81,16.48,57.33,1.85-2.05,3.2-3.79,4.79-5.26,1.89-1.76,2.16-3.31.91-5.73-2.86-5.53-5.33-11.26-7.94-16.92Q-377.33,338.76-384.16,323.93Z" transform="translate(502.54 37.56)"/><path d="M-276,219.2c-7.87-1.51-7.87-1.51-11.33,5.79-4.32,9.1-10.26,12.71-18.56,11.48a5.19,5.19,0,0,1-4.63-3.88c-2.24-6.19-5.18-12.14-7.19-18.4-1-3.09-2.73-6.45-.57-10,1.69-2.79,1.44-5.63.28-8.87-1.4-3.91-1.63-8.23-2.55-13.35l13.24,1.73,2.22-3.69c7.34,3.54,15,6.51,21.84,10.73,7.13,4.38,10.88,16.52,8.72,24.69A34.52,34.52,0,0,1-276,219.2Z" transform="translate(502.54 37.56)"/><path d="M-443.47,403.85a4.82,4.82,0,0,1-4.82,5,4.67,4.67,0,0,1-4.89-4.56,4.88,4.88,0,0,1,4.61-5.24A4.93,4.93,0,0,1-443.47,403.85Z" transform="translate(502.54 37.56)"/><path d="M227,96.3c-.12-1-1.27-2-2.45-2.9-1.41-1.11-2.56-1-3.27.79-1.39,3.41-4.31,4.6-7.55,4.46a45.07,45.07,0,0,1-11.25-1.6c-7.85-2.42-15.5-5.46-23.3-8a5.09,5.09,0,0,1-3.66-4c-3.1-11.27-6.32-22.5-9.52-33.74C163.61,43,158.32,37.35,149.74,36c-20.55-3.29-40.88-2.23-60.67,4.7C72.26,46.55,61.67,62.77,64,79.05a71.94,71.94,0,0,0,2.29,8.56L55.06,88a42.72,42.72,0,0,0,3.85,4.42c5.84,4.92,12.71,6.94,20.26,7,1,0,2.49-.19,3,.37,3.4,4,7.56,7.82,9.6,12.5,3,6.94,4.56,14.55,6.61,21.91a4.18,4.18,0,0,1-.27,3.17c-3.23,4.36-6.66,8.57-10,12.79-30.3-17-67.21-4.16-78.73,25.94a51.93,51.93,0,0,0,31,67.45c27.14,9.7,65.16-2.79,72.11-41.52,2.7-.24,4.87-.36,6.12,3.18,2,5.71,7.78,8.7,13.94,8.06a13.53,13.53,0,0,0,11.78-10.7c.18-.82.35-1.63.59-2.77,4.2,3.41,8.15,6.29,14,4.89-2.79-7.34-5.23-14.19-8-20.89-1.11-2.65-.66-4.36,1.1-6.47,11.17-13.47,22.2-27.05,33.31-40.57a47.23,47.23,0,0,1,3.52-3.41c1.53,3,2.73,5.57,4.18,8a3.26,3.26,0,0,1,.6,2.44,4.24,4.24,0,0,1,.71,1,4.63,4.63,0,0,1,1,2.44,4.83,4.83,0,0,1,.72,1.89,4.51,4.51,0,0,1,1.34,2.45,4.72,4.72,0,0,1,1.17,3.12,4.39,4.39,0,0,1,1.2,2.14l.2-.13c4.1,9.36,8,18.46,12.12,27.49.9,2,1.12,5.62,4.6,4.24s1.22-4.22.57-6.32c-3-9.71-6.21-19.36-9.33-29l.23-.08a5.5,5.5,0,0,1-.26-1.33,1.85,1.85,0,0,1-.12-.4,4.14,4.14,0,0,1-.19-1l0,0a3.27,3.27,0,0,1-.33-.83,4.4,4.4,0,0,1-.24-1.26l.06-.57a4.78,4.78,0,0,1-.53-1.86c0-.11,0-.22,0-.33a5,5,0,0,1-.67-1.3,2.75,2.75,0,0,1-.16-.56,4.61,4.61,0,0,1-1.2-3l-.33.1c-2.84-8.82-6.81-20.56-10.06-30.64,6.59,2.43,12.5,1.08,18.3-1.18,1,5,.35,7.89-2.66,10.37-1.56,1.29-3.68,1.88-5.36,3A12.63,12.63,0,0,0,202,125.1a30.18,30.18,0,0,0,3.55,1.08c.48.09,1.08-.33,1.61-.54,7.72-3.07,10.39-8.47,9.32-19.13l5.76-3.24a46.31,46.31,0,0,1-.43,6c-1,4.47,1.2,8.71,4.82,9.93-.27-2.57-.74-5.44-.81-8.32a83.28,83.28,0,0,1,.41-8.64C226.42,100.27,226.74,98.29,227,96.3ZM70,233.1c-17.15,3.8-37.31-1.89-45.29-17.26-8.21-15.8-4.85-38,8.49-50.12,11.78-10.69,33.37-12.63,46-4.4-5.8,7.38-11.55,14.76-17.41,22.06a5.35,5.35,0,0,1-2.71,1.18c-5.06,1.31-8.29,5-8.36,9.77a10.22,10.22,0,0,0,7.52,10.06c4.62,1.21,8.91-.86,11.66-5.42a6.16,6.16,0,0,1,2.45-1.76c.33-.18.9,0,1.36.09l24.6,2.83C97.78,214.25,85.15,229.75,70,233.1Zm11.28-40.71c-6.34-.52-12.69-.81-16.15-8.24,5.42-6.51,11.37-13.67,17.44-21,10.5,7.64,15.84,17.73,16.56,31.13C92.93,193.62,87.12,192.86,81.29,192.39Zm31.57,3.2c-.49-17.87-7.45-32.05-21.58-43l9.43-11.31c2.53,7.54,4.93,14.47,7.18,21.44,2.59,8,5,16.09,7.58,24.12C116.5,190,115.81,192.7,112.86,195.59Zm-4.24-58.77.5-.21q6.55,13,13.1,25.91c2.51,4.94,4.88,10,7.6,14.78,1.2,2.11,1,3.5-.62,5.12-1.37,1.36-2.51,3-4.09,4.84C119.5,170.08,114.06,153.45,108.62,136.82ZM131,208.32a8.79,8.79,0,0,1-9.12-8.51,9,9,0,0,1,8.71-9.36,9.09,9.09,0,0,1,9.19,8.59A8.9,8.9,0,0,1,131,208.32ZM178.3,123.7q-15.87,19.12-31.83,38.14c-.74.88-1.51,1.73-2.46,2.81-2.42-3.65-2.47-6.9-.91-10.7,3.77-9.19,7.09-18.57,10.59-27.88.4-1.06.75-2.14,1.36-3.9L137.74,126c-1.36.3-2.71.62-4.06.95-4.17,1-4.17,1-6.17-3.51,5.09-1.22,10.1-2.51,15.15-3.61q12-2.64,24.11-5a18.94,18.94,0,0,1,6.53-.59c2.69.43,6.13.93,7.66,2.75C183,119.47,179.93,121.74,178.3,123.7Zm-18.59-13c.79-8.4-3.42-12.64-10.46-15.11-12.87-4.53-25.66-9.31-38.49-14-.6-.22-1.23-.36-2.63-.77,2.58,4.55,4.78,8.42,7,12.3,3.08,5.44,6,10.95,9.3,16.28a5.68,5.68,0,0,0,3.71,2.14,74.93,74.93,0,0,0,8.61.25c-.81,3.34-2,5.43-5.6,6.17-6.05,1.25-6,1.51-9.07-3.91q-9.57-16.92-19.11-33.86c-.33-.6-.61-1.22-1.13-2.25l46.28-1.68c-1.13-4.28-2.14-8.12-3.15-12l.88-.73a11.52,11.52,0,0,1,2,2.49q5.28,12.66,10.38,25.37A15.85,15.85,0,0,0,168.1,101c4.62,1.63,9.22,3.34,14.7,5.34Z" transform="translate(502.54 37.56)" fill="#1b1b1b"/><path d="M201.88,40.05c-7-1.1-7-1.1-9.89,5.5-3.54,8.23-8.7,11.63-16.12,10.81a4.62,4.62,0,0,1-4.24-3.3c-2.19-5.43-5-10.63-7-16.13-1-2.71-2.64-5.65-.84-8.87,1.42-2.55,1.11-5.06,0-7.9-1.37-3.43-1.72-7.27-2.69-11.79l11.82,1.12,1.85-3.35c6.64,2.91,13.52,5.3,19.76,8.83,6.49,3.66,10.2,14.34,8.55,21.67A29.75,29.75,0,0,1,201.88,40.05Z" transform="translate(502.54 37.56)" fill="#1b1b1b"/><path d="M59,209.56a4.3,4.3,0,0,1-4.12,4.63,4.15,4.15,0,0,1-4.49-3.89,4.34,4.34,0,0,1,3.92-4.81A4.39,4.39,0,0,1,59,209.56Z" transform="translate(502.54 37.56)" fill="#1b1b1b"/><text transform="translate(660.27 270.08)" font-size="140.04" fill="#1b1b1b" font-family="Montserrat-BoldItalic, Montserrat" font-weight="700" font-style="italic" letter-spacing="-0.05em">C<tspan x="95.65" y="0" letter-spacing="-0.06em">y</tspan><tspan x="170.29" y="0" letter-spacing="-0.05em">c</tspan><tspan x="245.49" y="0">le</tspan></text></svg>